999
FreeCAD v0.19 24267 +148 (Git)
  0
SECTION
  2
HEADER
  9
$ACADVER
  1
AC1014
  9
$ACADMAINTVER
 70
     9
  9
$DWGCODEPAGE
  3
ANSI_1252
  9
$TEXTSTYLE
  7
STANDARD
  9
$DIMSTYLE
  2
STANDARD
  9
$DIMTXSTY
  7
STANDARD
  9
$CMLSTYLE
  2
STANDARD
  9
$PEXTMAX
 10
50
 20
50
 30
50
  9
$PEXTMIN
 10
0
 20
0
 30
0
  9
$HANDSEED
  5
FFFF
  0
ENDSEC
  0
SECTION
  2
CLASSES
  0
CLASS
  1
ACDBDICTIONARYWDFLT
  2
AcDbDictionaryWithDefault
  3
ObjectDBX Classes
 90
        0
280
     0
281
     0
  0
CLASS
  1
XRECORD
  2
AcDbXrecord
  3
ObjectDBX Classes
 90
        0
280
     0
281
     0
  0
CLASS
  1
LWPOLYLINE
  2
AcDbPolyline
  3
ObjectDBX Classes
 90
        0
280
     0
281
     1
  0
ENDSEC
  0
SECTION
  2
TABLES
  0
TABLE
  2
VPORT
  5
20
330
0
100
AcDbSymbolTable
 70
     1
  0
VPORT
  5
21
330
20
100
AcDbSymbolTableRecord
100
AcDbViewportTableRecord
  2
*ACTIVE
 70
     0
  0
ENDTAB
  0
TABLE
  2
LTYPE
  5
22
330
0
100
AcDbSymbolTable
 70
     1
  0
LTYPE
  5
23
330
21
100
AcDbSymbolTableRecord
100
AcDbLinetypeTableRecord
  2
BYBLOCK
 70
     0
  3

 72
    65
 73
     0
 40
0.0
  0
LTYPE
  5
24
330
21
100
AcDbSymbolTableRecord
100
AcDbLinetypeTableRecord
  2
BYLAYER
 70
     0
  3

 72
    65
 73
     0
 40
0.0
  0
LTYPE
  5
25
330
21
100
AcDbSymbolTableRecord
100
AcDbLinetypeTableRecord
  2
CONTINUOUS
 70
     0
  3
Solid line
 72
    65
 73
     0
 40
0.0
  0
ENDTAB
  0
TABLE
  2
LAYER
  5
AAB
330
0
100
AcDbSymbolTable
 70
6
  0
LAYER
  5
AAC
330
AAB
100
AcDbSymbolTableRecord
100
AcDbLayerTableRecord
  2
0
 70
   0
 62
   7
  6
CONTINUOUS
  0
LAYER
  5
AAD
330
AAB
100
AcDbSymbolTableRecord
100
AcDbLayerTableRecord
  2
View
 70
    0
 62
    7
  6
CONTINUOUS
  0
LAYER
  5
AAE
330
AAB
100
AcDbSymbolTableRecord
100
AcDbLayerTableRecord
  2
View002
 70
    0
 62
    7
  6
CONTINUOUS
  0
LAYER
  5
AAF
330
AAB
100
AcDbSymbolTableRecord
100
AcDbLayerTableRecord
  2
View003
 70
    0
 62
    7
  6
CONTINUOUS
  0
LAYER
  5
AB0
330
AAB
100
AcDbSymbolTableRecord
100
AcDbLayerTableRecord
  2
View004
 70
    0
 62
    7
  6
CONTINUOUS
  0
LAYER
  5
AB1
330
AAB
100
AcDbSymbolTableRecord
100
AcDbLayerTableRecord
  2
View005
 70
    0
 62
    7
  6
CONTINUOUS
  0
ENDTAB
  0
TABLE
  2
STYLE
  5
70
330
0
100
AcDbSymbolTable
 70
     2
  0
STYLE
  5
71
330
70
100
AcDbSymbolTableRecord
100
AcDbTextStyleTableRecord
  2
STANDARD
 70
     0
 40
0.0
 41
1.0
 50
0.0
 71
     0
 42
2.5
  3
arial.ttf
  4

  0
STYLE
  5
72
330
70
100
AcDbSymbolTableRecord
100
AcDbTextStyleTableRecord
  2
ANNOTATIVE
 70
     0
 40
0.0
 41
1.0
 50
0.0
 71
     0
 42
2.5
  3
arial.ttf
  4

  0
ENDTAB
  0
TABLE
  2
VIEW
  5
73
330
0
100
AcDbSymbolTable
 70
     0
  0
ENDTAB
  0
TABLE
  2
UCS
  5
74
330
0
100
AcDbSymbolTable
 70
     0
  0
ENDTAB
  0
TABLE
  2
APPID
  5
75
330
0
100
AcDbSymbolTable
 70
     2
  0
APPID
  5
76
330
75
100
AcDbSymbolTableRecord
100
AcDbRegAppTableRecord
  2
ACAD
 70
     0
  0
APPID
  5
77
330
75
100
AcDbSymbolTableRecord
100
AcDbRegAppTableRecord
  2
ACADANNOTATIVE
 70
     0
  0
ENDTAB
  0
TABLE
  2
DIMSTYLE
  5
78
330
0
100
AcDbSymbolTable
 70
     2
  0
DIMSTYLE
105
79
330
78
100
AcDbSymbolTableRecord
100
AcDbDimStyleTableRecord
  2
STANDARD
 70
     0
  3

  4

  5

  6

  7

 40
0.0
 41
2.5
 42
0.625
 43
3.75
 44
1.25
 45
0.0
 46
0.0
 47
0.0
 48
0.0
140
2.5
141
2.5
142
0.0
143
0.03937007874016
144
1.0
145
0.0
146
1.0
147
0.625
 71
     0
 72
     0
 73
     0
 74
     0
 75
     0
 76
     0
 77
     1
 78
     8
170
     0
171
     3
172
     1
173
     0
174
     0
175
     0
176
     0
177
     0
178
     0
270
     2
271
     2
272
     2
273
     2
274
     3
340
71
275
     0
280
     0
281
     0
282
     0
283
     0
284
     8
285
     0
286
     0
287
     3
288
     0
  0
ENDTAB
  0
TABLE
  2
BLOCK_RECORD
  5
A01
330
0
100
AcDbSymbolTable
  70
5
  0
BLOCK_RECORD
  5
A02
330
A01
100
AcDbSymbolTableRecord
100
AcDbBlockTableRecord
  2
*MODEL_SPACE
  0
BLOCK_RECORD
  5
A03
330
A01
100
AcDbSymbolTableRecord
100
AcDbBlockTableRecord
  2
*PAPER_SPACE
  0
ENDTAB
  0
ENDSEC
  0
SECTION
  2
BLOCKS
  0
BLOCK
  5
A04
330
A02
100
AcDbEntity
  8
0
100
AcDbBlockBegin
  2
*MODEL_SPACE
 70
   0
 10
0
 20
0
 30
0
  3
*MODEL_SPACE
  1
 
  0
ENDBLK
  5
A05
330
A02
100
AcDbEntity
  8
0
100
AcDbBlockEnd
  0
BLOCK
  5
A06
330
A03
100
AcDbEntity
 67
1
  8
0
100
AcDbBlockBegin
  2
*PAPER_SPACE
 70
   0
 10
0
 20
0
 30
0
  3
*PAPER_SPACE
  1
 
  0
ENDBLK
  5
A07
330
A03
100
AcDbEntity
 67
    1
  8
0
100
AcDbBlockEnd
  0
ENDSEC
  0
SECTION
  2
ENTITIES
  0
ARC
  5
A08
330
A02
100
AcDbEntity
  8
View
100
AcDbCircle
 10
141.002
 20
241.165
 30
0
 40
18
100
AcDbArc
 50
-90
 51
90
  0
LINE
  5
A09
330
A02
100
AcDbEntity
  8
View
100
AcDbLine
 10
78.693
 20
223.165
 30
0
 11
61.0019
 21
223.165
 31
0
  0
LINE
  5
A0A
330
A02
100
AcDbEntity
  8
View
100
AcDbLine
 10
123.548
 20
223.165
 30
0
 11
123.502
 21
223.165
 31
0
  0
LINE
  5
A0B
330
A02
100
AcDbEntity
  8
View
100
AcDbLine
 10
141.002
 20
223.165
 30
0
 11
123.548
 21
223.165
 31
0
  0
LINE
  5
A0C
330
A02
100
AcDbEntity
  8
View
100
AcDbLine
 10
123.548
 20
259.165
 30
0
 11
141.002
 21
259.165
 31
0
  0
LINE
  5
A0D
330
A02
100
AcDbEntity
  8
View
100
AcDbLine
 10
123.548
 20
259.165
 30
0
 11
123.502
 21
259.165
 31
0
  0
LINE
  5
A0E
330
A02
100
AcDbEntity
  8
View
100
AcDbLine
 10
61.0019
 20
259.165
 30
0
 11
78.693
 21
259.165
 31
0
  0
LINE
  5
A0F
330
A02
100
AcDbEntity
  8
View
100
AcDbLine
 10
123.548
 20
259.165
 30
0
 11
123.548
 21
223.165
 31
0
  0
ARC
  5
A10
330
A02
100
AcDbEntity
  8
View
100
AcDbCircle
 10
61.0019
 20
241.165
 30
0
 40
18
100
AcDbArc
 50
90
 51
-90
  0
LINE
  5
A11
330
A02
100
AcDbEntity
  8
View
100
AcDbLine
 10
123.502
 20
223.165
 30
0
 11
78.693
 21
223.165
 31
0
  0
LINE
  5
A12
330
A02
100
AcDbEntity
  8
View
100
AcDbLine
 10
78.693
 20
259.165
 30
0
 11
123.502
 21
259.165
 31
0
  0
CIRCLE
  5
A13
330
A02
100
AcDbEntity
  8
View
100
AcDbCircle
 10
141.002
 20
241.165
 40
5.5
  0
LINE
  5
A14
330
A02
100
AcDbEntity
  8
View
100
AcDbLine
 10
78.693
 20
223.165
 30
0
 11
78.693
 21
259.165
 31
0
  0
CIRCLE
  5
A15
330
A02
100
AcDbEntity
  8
View
100
AcDbCircle
 10
61.0019
 20
241.165
 40
5.5
  0
LINE
  5
A16
330
A02
100
AcDbEntity
  8
View
100
AcDbLine
 10
123.502
 20
259.165
 30
0
 11
123.502
 21
223.165
 31
0
  0
CIRCLE
  5
A17
330
A02
100
AcDbEntity
  8
View
100
AcDbCircle
 10
83.0019
 20
227.165
 40
1.5
  0
CIRCLE
  5
A18
330
A02
100
AcDbEntity
  8
View
100
AcDbCircle
 10
119.002
 20
227.165
 40
1.5
  0
CIRCLE
  5
A19
330
A02
100
AcDbEntity
  8
View
100
AcDbCircle
 10
119.002
 20
255.165
 40
1.5
  0
CIRCLE
  5
A1A
330
A02
100
AcDbEntity
  8
View
100
AcDbCircle
 10
83.0019
 20
255.165
 40
1.5
  0
CIRCLE
  5
A1B
330
A02
100
AcDbEntity
  8
View
100
AcDbCircle
 10
141.002
 20
241.165
 40
2.5
  0
CIRCLE
  5
A1C
330
A02
100
AcDbEntity
  8
View
100
AcDbCircle
 10
61.0019
 20
241.165
 40
2.5
  0
LINE
  5
A1D
330
A02
100
AcDbEntity
  8
View002
100
AcDbLine
 10
127.518
 20
59.3908
 30
0
 11
127.518
 21
74.3908
 31
0
  0
LINE
  5
A1E
330
A02
100
AcDbEntity
  8
View002
100
AcDbLine
 10
91.5178
 20
59.3908
 30
0
 11
91.5178
 21
74.3908
 31
0
  0
SPLINE
  5
A1F
330
A02
100
AcDbEntity
  8
View002
100
AcDbSpline
210
0
220
0
230
1
 70
8
 71
1
 72
17
 73
15
 74
0
 40
1.5708
 40
1.5708
 40
1.7952
 40
2.0196
 40
2.24399
 40
2.46839
 40
2.69279
 40
2.91719
 40
3.14159
 40
3.36599
 40
3.59039
 40
3.81479
 40
4.03919
 40
4.26359
 40
4.48799
 40
4.71239
 40
4.71239
 10
91.5178
 20
59.3908
 30
0
 10
91.9691
 20
59.3908
 30
0
 10
93.3003
 20
59.3908
 30
0
 10
95.4448
 20
59.3908
 30
0
 10
98.2949
 20
59.3908
 30
0
 10
101.708
 20
59.3908
 30
0
 10
105.512
 20
59.3908
 30
0
 10
109.518
 20
59.3908
 30
0
 10
113.523
 20
59.3908
 30
0
 10
117.328
 20
59.3908
 30
0
 10
120.741
 20
59.3908
 30
0
 10
123.591
 20
59.3908
 30
0
 10
125.735
 20
59.3908
 30
0
 10
127.066
 20
59.3908
 30
0
 10
127.518
 20
59.3908
 30
0
  0
SPLINE
  5
A20
330
A02
100
AcDbEntity
  8
View002
100
AcDbSpline
210
0
220
0
230
1
 70
8
 71
1
 72
17
 73
15
 74
0
 40
1.5708
 40
1.5708
 40
1.7952
 40
2.0196
 40
2.24399
 40
2.46839
 40
2.69279
 40
2.91719
 40
3.14159
 40
3.36599
 40
3.59039
 40
3.81479
 40
4.03919
 40
4.26359
 40
4.48799
 40
4.71239
 40
4.71239
 10
91.5178
 20
74.3908
 30
0
 10
91.9691
 20
74.3908
 30
0
 10
93.3003
 20
74.3908
 30
0
 10
95.4448
 20
74.3908
 30
0
 10
98.2949
 20
74.3908
 30
0
 10
101.708
 20
74.3908
 30
0
 10
105.512
 20
74.3908
 30
0
 10
109.518
 20
74.3908
 30
0
 10
113.523
 20
74.3908
 30
0
 10
117.328
 20
74.3908
 30
0
 10
120.741
 20
74.3908
 30
0
 10
123.591
 20
74.3908
 30
0
 10
125.735
 20
74.3908
 30
0
 10
127.066
 20
74.3908
 30
0
 10
127.518
 20
74.3908
 30
0
  0
LINE
  5
A21
330
A02
100
AcDbEntity
  8
View002
100
AcDbLine
 10
127.518
 20
74.3908
 30
0
 11
127.518
 21
74.4977
 31
0
  0
LINE
  5
A22
330
A02
100
AcDbEntity
  8
View002
100
AcDbLine
 10
91.5178
 20
74.3908
 30
0
 11
91.5178
 21
74.4977
 31
0
  0
LINE
  5
A23
330
A02
100
AcDbEntity
  8
View002
100
AcDbLine
 10
119.518
 20
59.3908
 30
0
 11
119.518
 21
39.3908
 31
0
  0
LINE
  5
A24
330
A02
100
AcDbEntity
  8
View002
100
AcDbLine
 10
99.5178
 20
59.3908
 30
0
 11
99.5178
 21
39.3908
 31
0
  0
LINE
  5
A25
330
A02
100
AcDbEntity
  8
View002
100
AcDbLine
 10
99.5178
 20
39.3908
 30
0
 11
119.518
 21
39.3908
 31
0
  0
LINE
  5
A26
330
A02
100
AcDbEntity
  8
View002
100
AcDbLine
 10
127.518
 20
74.4977
 30
0
 11
115.018
 21
74.4977
 31
0
  0
LINE
  5
A27
330
A02
100
AcDbEntity
  8
View002
100
AcDbLine
 10
104.018
 20
74.4977
 30
0
 11
91.5178
 21
74.4977
 31
0
  0
SPLINE
  5
A28
330
A02
100
AcDbEntity
  8
View002
100
AcDbSpline
210
0
220
0
230
1
 70
8
 71
1
 72
17
 73
15
 74
0
 40
1.5708
 40
1.5708
 40
1.7952
 40
2.0196
 40
2.24399
 40
2.46839
 40
2.69279
 40
2.91719
 40
3.14159
 40
3.36599
 40
3.59039
 40
3.81479
 40
4.03919
 40
4.26359
 40
4.48799
 40
4.71239
 40
4.71239
 10
104.018
 20
79.3908
 30
0
 10
104.156
 20
79.3908
 30
0
 10
104.562
 20
79.3908
 30
0
 10
105.218
 20
79.3908
 30
0
 10
106.089
 20
79.3908
 30
0
 10
107.131
 20
79.3908
 30
0
 10
108.294
 20
79.3908
 30
0
 10
109.518
 20
79.3908
 30
0
 10
110.742
 20
79.3908
 30
0
 10
111.904
 20
79.3908
 30
0
 10
112.947
 20
79.3908
 30
0
 10
113.818
 20
79.3908
 30
0
 10
114.473
 20
79.3908
 30
0
 10
114.88
 20
79.3908
 30
0
 10
115.018
 20
79.3908
 30
0
  0
LINE
  5
A29
330
A02
100
AcDbEntity
  8
View002
100
AcDbLine
 10
104.018
 20
79.3908
 30
0
 11
104.018
 21
74.3908
 31
0
  0
LINE
  5
A2A
330
A02
100
AcDbEntity
  8
View002
100
AcDbLine
 10
115.018
 20
79.3908
 30
0
 11
115.018
 21
74.3908
 31
0
  0
ELLIPSE
  5
A2B
330
A02
100
AcDbEntity
  8
View003
100
AcDbEllipse
 10
132.137
 20
133.461
 30
0
 11
18
 21
1.10218e-15
 31
0
 40
0.57735
 41
3.92699
 42
0
  0
ELLIPSE
  5
A2C
330
A02
100
AcDbEntity
  8
View003
100
AcDbEllipse
 10
132.137
 20
145.708
 30
0
 11
18
 21
1.10218e-15
 31
0
 40
0.57735
 41
3.92699
 42
0
  0
ELLIPSE
  5
A2D
330
A02
100
AcDbEntity
  8
View003
100
AcDbEllipse
 10
132.137
 20
145.708
 30
0
 11
18
 21
1.10218e-15
 31
0
 40
0.57735
 41
0
 42
0.785398
  0
LINE
  5
A2E
330
A02
100
AcDbEntity
  8
View003
100
AcDbLine
 10
119.409
 20
126.112
 30
0
 11
62.8406
 21
158.772
 31
0
  0
LINE
  5
A2F
330
A02
100
AcDbEntity
  8
View003
100
AcDbLine
 10
75.3502
 20
163.797
 30
0
 11
62.8406
 21
171.02
 31
0
  0
LINE
  5
A30
330
A02
100
AcDbEntity
  8
View003
100
AcDbLine
 10
75.3502
 20
157.802
 30
0
 11
75.3502
 21
163.797
 31
0
  0
LINE
  5
A31
330
A02
100
AcDbEntity
  8
View003
100
AcDbLine
 10
107.067
 20
139.49
 30
0
 11
107.035
 21
139.509
 31
0
  0
LINE
  5
A32
330
A02
100
AcDbEntity
  8
View003
100
AcDbLine
 10
107.035
 20
139.509
 30
0
 11
75.3502
 21
157.802
 31
0
  0
LINE
  5
A33
330
A02
100
AcDbEntity
  8
View003
100
AcDbLine
 10
107.067
 20
145.485
 30
0
 11
107.067
 21
139.49
 31
0
  0
LINE
  5
A34
330
A02
100
AcDbEntity
  8
View003
100
AcDbLine
 10
119.409
 20
138.36
 30
0
 11
107.067
 21
145.485
 31
0
  0
LINE
  5
A35
330
A02
100
AcDbEntity
  8
View003
100
AcDbLine
 10
132.523
 20
160.182
 30
0
 11
144.865
 21
153.057
 31
0
  0
LINE
  5
A36
330
A02
100
AcDbEntity
  8
View003
100
AcDbLine
 10
88.2965
 20
185.717
 30
0
 11
100.73
 21
178.538
 31
0
  0
ELLIPSE
  5
A37
330
A02
100
AcDbEntity
  8
View003
100
AcDbEllipse
 10
75.5685
 20
166.121
 30
0
 11
18
 21
1.10218e-15
 31
0
 40
0.57735
 41
3.14159
 42
3.92699
  0
LINE
  5
A38
330
A02
100
AcDbEntity
  8
View003
100
AcDbLine
 10
132.523
 20
160.182
 30
0
 11
107.067
 21
145.485
 31
0
  0
ELLIPSE
  5
A39
330
A02
100
AcDbEntity
  8
View003
100
AcDbEllipse
 10
132.137
 20
145.708
 30
0
 11
5.5
 21
3.36778e-16
 31
0
 40
0.57735
 41
5.49779
 42
0
  0
ELLIPSE
  5
A3A
330
A02
100
AcDbEntity
  8
View003
100
AcDbEllipse
 10
132.137
 20
145.708
 30
0
 11
5.5
 21
3.36778e-16
 31
0
 40
0.57735
 41
3.14159
 42
5.49779
  0
ELLIPSE
  5
A3B
330
A02
100
AcDbEntity
  8
View003
100
AcDbEllipse
 10
75.5685
 20
178.368
 30
0
 11
18
 21
1.10218e-15
 31
0
 40
0.57735
 41
0.785398
 42
3.14159
  0
ELLIPSE
  5
A3C
330
A02
100
AcDbEntity
  8
View003
100
AcDbEllipse
 10
75.5685
 20
178.368
 30
0
 11
18
 21
1.10218e-15
 31
0
 40
0.57735
 41
3.14159
 42
3.92699
  0
ELLIPSE
  5
A3D
330
A02
100
AcDbEntity
  8
View003
100
AcDbEllipse
 10
75.5685
 20
178.368
 30
0
 11
5.5
 21
3.36778e-16
 31
0
 40
0.57735
 41
5.49779
 42
0
  0
ELLIPSE
  5
A3E
330
A02
100
AcDbEntity
  8
View003
100
AcDbEllipse
 10
75.5685
 20
178.368
 30
0
 11
5.5
 21
3.36778e-16
 31
0
 40
0.57735
 41
3.14159
 42
5.49779
  0
LINE
  5
A3F
330
A02
100
AcDbEntity
  8
View003
100
AcDbLine
 10
107.035
 20
139.509
 30
0
 11
107.035
 21
145.592
 31
0
  0
LINE
  5
A40
330
A02
100
AcDbEntity
  8
View003
100
AcDbLine
 10
75.3502
 20
163.797
 30
0
 11
75.3502
 21
163.885
 31
0
  0
LINE
  5
A41
330
A02
100
AcDbEntity
  8
View003
100
AcDbLine
 10
107.035
 20
145.592
 30
0
 11
75.3502
 21
163.885
 31
0
  0
LINE
  5
A42
330
A02
100
AcDbEntity
  8
View003
100
AcDbLine
 10
107.067
 20
139.527
 30
0
 11
107.035
 21
139.509
 31
0
  0
LINE
  5
A43
330
A02
100
AcDbEntity
  8
View003
100
AcDbLine
 10
132.491
 20
160.164
 30
0
 11
132.491
 21
160.288
 31
0
  0
LINE
  5
A44
330
A02
100
AcDbEntity
  8
View003
100
AcDbLine
 10
100.806
 20
178.582
 30
0
 11
132.491
 21
160.288
 31
0
  0
LINE
  5
A45
330
A02
100
AcDbEntity
  8
View003
100
AcDbLine
 10
75.5685
 20
151.424
 30
0
 11
75.5685
 21
141.626
 31
0
  0
LINE
  5
A46
330
A02
100
AcDbEntity
  8
View003
100
AcDbLine
 10
75.5685
 20
141.626
 30
0
 11
117.995
 21
117.131
 31
0
  0
LINE
  5
A47
330
A02
100
AcDbEntity
  8
View003
100
AcDbLine
 10
117.995
 20
126.929
 30
0
 11
117.995
 21
117.131
 31
0
  0
LINE
  5
A48
330
A02
100
AcDbEntity
  8
View003
100
AcDbLine
 10
82.6083
 20
139.026
 30
0
 11
82.6083
 21
147.359
 31
0
  0
LINE
  5
A49
330
A02
100
AcDbEntity
  8
View003
100
AcDbLine
 10
110.893
 20
122.696
 30
0
 11
82.6083
 21
139.026
 31
0
  0
LINE
  5
A4A
330
A02
100
AcDbEntity
  8
View003
100
AcDbLine
 10
110.893
 20
131.029
 30
0
 11
110.893
 21
122.696
 31
0
  0
LINE
  5
A4B
330
A02
100
AcDbEntity
  8
View003
100
AcDbLine
 10
117.995
 20
117.131
 30
0
 11
128.625
 21
123.268
 31
0
  0
ELLIPSE
  5
A4C
330
A02
100
AcDbEntity
  8
View003
100
AcDbEllipse
 10
132.137
 20
149.791
 30
0
 11
5.5
 21
3.36778e-16
 31
0
 40
0.57735
 41
5.49779
 42
0
  0
ELLIPSE
  5
A4D
330
A02
100
AcDbEntity
  8
View003
100
AcDbEllipse
 10
132.137
 20
149.791
 30
0
 11
5.5
 21
3.36778e-16
 31
0
 40
0.57735
 41
0
 42
3.14159
  0
ELLIPSE
  5
A4E
330
A02
100
AcDbEntity
  8
View003
100
AcDbEllipse
 10
132.137
 20
149.791
 30
0
 11
5.5
 21
3.36778e-16
 31
0
 40
0.57735
 41
3.14159
 42
5.49779
  0
LINE
  5
A4F
330
A02
100
AcDbEntity
  8
View003
100
AcDbLine
 10
75.3502
 20
163.885
 30
0
 11
100.806
 21
178.582
 31
0
  0
ELLIPSE
  5
A50
330
A02
100
AcDbEntity
  8
View003
100
AcDbEllipse
 10
75.5685
 20
182.451
 30
0
 11
5.5
 21
3.36778e-16
 31
0
 40
0.57735
 41
5.49779
 42
0
  0
ELLIPSE
  5
A51
330
A02
100
AcDbEntity
  8
View003
100
AcDbEllipse
 10
75.5685
 20
182.451
 30
0
 11
5.5
 21
3.36778e-16
 31
0
 40
0.57735
 41
0
 42
3.14159
  0
ELLIPSE
  5
A52
330
A02
100
AcDbEntity
  8
View003
100
AcDbEllipse
 10
75.5685
 20
182.451
 30
0
 11
5.5
 21
3.36778e-16
 31
0
 40
0.57735
 41
3.14159
 42
5.49779
  0
LINE
  5
A53
330
A02
100
AcDbEntity
  8
View003
100
AcDbLine
 10
132.491
 20
160.288
 30
0
 11
107.035
 21
145.592
 31
0
  0
ELLIPSE
  5
A54
330
A02
100
AcDbEntity
  8
View003
100
AcDbEllipse
 10
81.2254
 20
163.759
 30
0
 11
1.5
 21
-2.41218e-16
 31
0
 40
0.57735
 41
5.49779
 42
0
  0
ELLIPSE
  5
A55
330
A02
100
AcDbEntity
  8
View003
100
AcDbEllipse
 10
81.2254
 20
163.759
 30
0
 11
1.5
 21
-2.41218e-16
 31
0
 40
0.57735
 41
1.11022e-16
 42
3.14159
  0
ELLIPSE
  5
A56
330
A02
100
AcDbEntity
  8
View003
100
AcDbEllipse
 10
81.2254
 20
163.759
 30
0
 11
1.5
 21
-2.41218e-16
 31
0
 40
0.57735
 41
3.14159
 42
5.49779
  0
ELLIPSE
  5
A57
330
A02
100
AcDbEntity
  8
View003
100
AcDbEllipse
 10
106.681
 20
149.062
 30
0
 11
1.5
 21
-2.41218e-16
 31
0
 40
0.57735
 41
5.49779
 42
0
  0
ELLIPSE
  5
A58
330
A02
100
AcDbEntity
  8
View003
100
AcDbEllipse
 10
106.681
 20
149.062
 30
0
 11
1.5
 21
-2.41218e-16
 31
0
 40
0.57735
 41
1.11022e-16
 42
3.14159
  0
ELLIPSE
  5
A59
330
A02
100
AcDbEntity
  8
View003
100
AcDbEllipse
 10
106.681
 20
149.062
 30
0
 11
1.5
 21
-2.41218e-16
 31
0
 40
0.57735
 41
3.14159
 42
5.49779
  0
ELLIPSE
  5
A5A
330
A02
100
AcDbEntity
  8
View003
100
AcDbEllipse
 10
126.48
 20
160.493
 30
0
 11
1.5
 21
-2.41218e-16
 31
0
 40
0.57735
 41
5.49779
 42
0
  0
ELLIPSE
  5
A5B
330
A02
100
AcDbEntity
  8
View003
100
AcDbEllipse
 10
126.48
 20
160.493
 30
0
 11
1.5
 21
-2.41218e-16
 31
0
 40
0.57735
 41
1.11022e-16
 42
3.14159
  0
ELLIPSE
  5
A5C
330
A02
100
AcDbEntity
  8
View003
100
AcDbEllipse
 10
126.48
 20
160.493
 30
0
 11
1.5
 21
-2.41218e-16
 31
0
 40
0.57735
 41
3.14159
 42
5.49779
  0
ELLIPSE
  5
A5D
330
A02
100
AcDbEntity
  8
View003
100
AcDbEllipse
 10
101.024
 20
175.19
 30
0
 11
1.5
 21
-2.41218e-16
 31
0
 40
0.57735
 41
5.49779
 42
0
  0
ELLIPSE
  5
A5E
330
A02
100
AcDbEntity
  8
View003
100
AcDbEllipse
 10
101.024
 20
175.19
 30
0
 11
1.5
 21
-2.41218e-16
 31
0
 40
0.57735
 41
1.11022e-16
 42
3.14159
  0
ELLIPSE
  5
A5F
330
A02
100
AcDbEntity
  8
View003
100
AcDbEllipse
 10
101.024
 20
175.19
 30
0
 11
1.5
 21
-2.41218e-16
 31
0
 40
0.57735
 41
3.14159
 42
5.49779
  0
LINE
  5
A60
330
A02
100
AcDbEntity
  8
View003
100
AcDbLine
 10
82.6083
 20
139.026
 30
0
 11
89.825
 21
143.193
 31
0
  0
ELLIPSE
  5
A61
330
A02
100
AcDbEntity
  8
View003
100
AcDbEllipse
 10
132.137
 20
149.791
 30
0
 11
2.5
 21
1.53081e-16
 31
0
 40
0.57735
 41
5.49779
 42
0
  0
ELLIPSE
  5
A62
330
A02
100
AcDbEntity
  8
View003
100
AcDbEllipse
 10
132.137
 20
149.791
 30
0
 11
2.5
 21
1.53081e-16
 31
0
 40
0.57735
 41
0
 42
3.14159
  0
ELLIPSE
  5
A63
330
A02
100
AcDbEntity
  8
View003
100
AcDbEllipse
 10
132.137
 20
149.791
 30
0
 11
2.5
 21
1.53081e-16
 31
0
 40
0.57735
 41
3.14159
 42
5.49779
  0
ELLIPSE
  5
A64
330
A02
100
AcDbEntity
  8
View003
100
AcDbEllipse
 10
75.5685
 20
182.451
 30
0
 11
2.5
 21
1.53081e-16
 31
0
 40
0.57735
 41
5.49779
 42
0
  0
ELLIPSE
  5
A65
330
A02
100
AcDbEntity
  8
View003
100
AcDbEllipse
 10
75.5685
 20
182.451
 30
0
 11
2.5
 21
1.53081e-16
 31
0
 40
0.57735
 41
0
 42
3.14159
  0
ELLIPSE
  5
A66
330
A02
100
AcDbEntity
  8
View003
100
AcDbEllipse
 10
75.5685
 20
182.451
 30
0
 11
2.5
 21
1.53081e-16
 31
0
 40
0.57735
 41
3.14159
 42
5.49779
  0
LINE
  5
A67
330
A02
100
AcDbEntity
  8
View003
100
AcDbLine
 10
150.137
 20
145.708
 30
0
 11
150.137
 21
133.461
 31
0
  0
LINE
  5
A68
330
A02
100
AcDbEntity
  8
View003
100
AcDbLine
 10
57.5685
 20
178.368
 30
0
 11
57.5685
 21
166.121
 31
0
  0
LINE
  5
A69
330
A02
100
AcDbEntity
  8
View003
100
AcDbLine
 10
126.637
 20
149.791
 30
0
 11
126.637
 21
145.708
 31
0
  0
LINE
  5
A6A
330
A02
100
AcDbEntity
  8
View003
100
AcDbLine
 10
137.637
 20
149.791
 30
0
 11
137.637
 21
145.708
 31
0
  0
LINE
  5
A6B
330
A02
100
AcDbEntity
  8
View003
100
AcDbLine
 10
70.0685
 20
182.451
 30
0
 11
70.0685
 21
178.368
 31
0
  0
LINE
  5
A6C
330
A02
100
AcDbEntity
  8
View003
100
AcDbLine
 10
81.0685
 20
182.451
 30
0
 11
81.0685
 21
178.368
 31
0
  0
LINE
  5
A6D
330
A02
100
AcDbEntity
  8
View003
100
AcDbLine
 10
119.409
 20
126.112
 30
0
 11
119.409
 21
138.36
 31
0
  0
LINE
  5
A6E
330
A02
100
AcDbEntity
  8
View003
100
AcDbLine
 10
62.8406
 20
158.772
 30
0
 11
62.8406
 21
171.02
 31
0
  0
LINE
  5
A6F
330
A02
100
AcDbEntity
  8
View003
100
AcDbLine
 10
136.026
 20
143.463
 30
0
 11
136.026
 21
147.545
 31
0
  0
LINE
  5
A70
330
A02
100
AcDbEntity
  8
View003
100
AcDbLine
 10
79.4576
 20
176.123
 30
0
 11
79.4576
 21
180.205
 31
0
  0
SPLINE
  5
A71
330
A02
100
AcDbEntity
  8
View004
100
AcDbSpline
210
0
220
0
230
1
 70
8
 71
1
 72
17
 73
15
 74
0
 40
4.71239
 40
4.71239
 40
4.82459
 40
4.93679
 40
5.04899
 40
5.16119
 40
5.27339
 40
5.38559
 40
5.49779
 40
5.60999
 40
5.72219
 40
5.83439
 40
5.94659
 40
6.05879
 40
6.17099
 40
6.28319
 40
6.28319
 10
341.726
 20
241.418
 30
0
 10
343.741
 20
241.418
 30
0
 10
345.732
 20
241.418
 30
0
 10
347.671
 20
241.418
 30
0
 10
349.536
 20
241.418
 30
0
 10
351.303
 20
241.418
 30
0
 10
352.949
 20
241.418
 30
0
 10
354.454
 20
241.418
 30
0
 10
355.799
 20
241.418
 30
0
 10
356.967
 20
241.418
 30
0
 10
357.944
 20
241.418
 30
0
 10
358.716
 20
241.418
 30
0
 10
359.275
 20
241.418
 30
0
 10
359.613
 20
241.418
 30
0
 10
359.726
 20
241.418
 30
0
  0
SPLINE
  5
A72
330
A02
100
AcDbEntity
  8
View004
100
AcDbSpline
210
0
220
0
230
1
 70
8
 71
1
 72
17
 73
15
 74
0
 40
4.71239
 40
4.71239
 40
4.82459
 40
4.93679
 40
5.04899
 40
5.16119
 40
5.27339
 40
5.38559
 40
5.49779
 40
5.60999
 40
5.72219
 40
5.83439
 40
5.94659
 40
6.05879
 40
6.17099
 40
6.28319
 40
6.28319
 10
341.726
 20
256.418
 30
0
 10
343.741
 20
256.418
 30
0
 10
345.732
 20
256.418
 30
0
 10
347.671
 20
256.418
 30
0
 10
349.536
 20
256.418
 30
0
 10
351.303
 20
256.418
 30
0
 10
352.949
 20
256.418
 30
0
 10
354.454
 20
256.418
 30
0
 10
355.799
 20
256.418
 30
0
 10
356.967
 20
256.418
 30
0
 10
357.944
 20
256.418
 30
0
 10
358.716
 20
256.418
 30
0
 10
359.275
 20
256.418
 30
0
 10
359.613
 20
256.418
 30
0
 10
359.726
 20
256.418
 30
0
  0
LINE
  5
A73
330
A02
100
AcDbEntity
  8
View004
100
AcDbLine
 10
341.726
 20
241.418
 30
0
 11
261.726
 21
241.418
 31
0
  0
LINE
  5
A74
330
A02
100
AcDbEntity
  8
View004
100
AcDbLine
 10
279.417
 20
256.418
 30
0
 11
261.726
 21
256.418
 31
0
  0
LINE
  5
A75
330
A02
100
AcDbEntity
  8
View004
100
AcDbLine
 10
279.417
 20
249.075
 30
0
 11
279.417
 21
256.418
 31
0
  0
LINE
  5
A76
330
A02
100
AcDbEntity
  8
View004
100
AcDbLine
 10
324.272
 20
249.075
 30
0
 11
324.226
 21
249.075
 31
0
  0
LINE
  5
A77
330
A02
100
AcDbEntity
  8
View004
100
AcDbLine
 10
324.226
 20
249.075
 30
0
 11
279.417
 21
249.075
 31
0
  0
LINE
  5
A78
330
A02
100
AcDbEntity
  8
View004
100
AcDbLine
 10
324.272
 20
256.418
 30
0
 11
324.272
 21
249.075
 31
0
  0
LINE
  5
A79
330
A02
100
AcDbEntity
  8
View004
100
AcDbLine
 10
341.726
 20
256.418
 30
0
 11
324.272
 21
256.418
 31
0
  0
SPLINE
  5
A7A
330
A02
100
AcDbEntity
  8
View004
100
AcDbSpline
210
0
220
0
230
1
 70
8
 71
1
 72
17
 73
15
 74
0
 40
3.14159
 40
3.14159
 40
3.25379
 40
3.36599
 40
3.47819
 40
3.59039
 40
3.70259
 40
3.81479
 40
3.92699
 40
4.03919
 40
4.15139
 40
4.26359
 40
4.37579
 40
4.48799
 40
4.60019
 40
4.71239
 40
4.71239
 10
243.726
 20
241.418
 30
0
 10
243.839
 20
241.418
 30
0
 10
244.177
 20
241.418
 30
0
 10
244.736
 20
241.418
 30
0
 10
245.509
 20
241.418
 30
0
 10
246.485
 20
241.418
 30
0
 10
247.653
 20
241.418
 30
0
 10
248.998
 20
241.418
 30
0
 10
250.503
 20
241.418
 30
0
 10
252.15
 20
241.418
 30
0
 10
253.916
 20
241.418
 30
0
 10
255.781
 20
241.418
 30
0
 10
257.721
 20
241.418
 30
0
 10
259.711
 20
241.418
 30
0
 10
261.726
 20
241.418
 30
0
  0
SPLINE
  5
A7B
330
A02
100
AcDbEntity
  8
View004
100
AcDbSpline
210
0
220
0
230
1
 70
8
 71
1
 72
17
 73
15
 74
0
 40
3.14159
 40
3.14159
 40
3.25379
 40
3.36599
 40
3.47819
 40
3.59039
 40
3.70259
 40
3.81479
 40
3.92699
 40
4.03919
 40
4.15139
 40
4.26359
 40
4.37579
 40
4.48799
 40
4.60019
 40
4.71239
 40
4.71239
 10
243.726
 20
256.418
 30
0
 10
243.839
 20
256.418
 30
0
 10
244.177
 20
256.418
 30
0
 10
244.736
 20
256.418
 30
0
 10
245.509
 20
256.418
 30
0
 10
246.485
 20
256.418
 30
0
 10
247.653
 20
256.418
 30
0
 10
248.998
 20
256.418
 30
0
 10
250.503
 20
256.418
 30
0
 10
252.15
 20
256.418
 30
0
 10
253.916
 20
256.418
 30
0
 10
255.781
 20
256.418
 30
0
 10
257.721
 20
256.418
 30
0
 10
259.711
 20
256.418
 30
0
 10
261.726
 20
256.418
 30
0
  0
LINE
  5
A7C
330
A02
100
AcDbEntity
  8
View004
100
AcDbLine
 10
324.226
 20
249.075
 30
0
 11
324.226
 21
256.525
 31
0
  0
LINE
  5
A7D
330
A02
100
AcDbEntity
  8
View004
100
AcDbLine
 10
279.417
 20
256.418
 30
0
 11
279.417
 21
256.525
 31
0
  0
LINE
  5
A7E
330
A02
100
AcDbEntity
  8
View004
100
AcDbLine
 10
324.226
 20
256.525
 30
0
 11
279.417
 21
256.525
 31
0
  0
LINE
  5
A7F
330
A02
100
AcDbEntity
  8
View004
100
AcDbLine
 10
271.726
 20
241.418
 30
0
 11
271.726
 21
221.418
 31
0
  0
LINE
  5
A80
330
A02
100
AcDbEntity
  8
View004
100
AcDbLine
 10
271.726
 20
221.418
 30
0
 11
331.726
 21
221.418
 31
0
  0
LINE
  5
A81
330
A02
100
AcDbEntity
  8
View004
100
AcDbLine
 10
331.726
 20
241.418
 30
0
 11
331.726
 21
221.418
 31
0
  0
LINE
  5
A82
330
A02
100
AcDbEntity
  8
View004
100
AcDbLine
 10
281.682
 20
223.212
 30
0
 11
281.682
 21
239.547
 31
0
  0
LINE
  5
A83
330
A02
100
AcDbEntity
  8
View004
100
AcDbLine
 10
321.682
 20
223.212
 30
0
 11
281.682
 21
223.212
 31
0
  0
LINE
  5
A84
330
A02
100
AcDbEntity
  8
View004
100
AcDbLine
 10
321.682
 20
239.547
 30
0
 11
321.682
 21
223.212
 31
0
  0
LINE
  5
A85
330
A02
100
AcDbEntity
  8
View004
100
AcDbLine
 10
281.682
 20
239.547
 30
0
 11
321.682
 21
239.547
 31
0
  0
LINE
  5
A86
330
A02
100
AcDbEntity
  8
View004
100
AcDbLine
 10
347.226
 20
256.418
 30
0
 11
347.226
 21
261.418
 31
0
  0
SPLINE
  5
A87
330
A02
100
AcDbEntity
  8
View004
100
AcDbSpline
210
0
220
0
230
1
 70
8
 71
1
 72
17
 73
15
 74
0
 40
3.14159
 40
3.14159
 40
3.36599
 40
3.59039
 40
3.81479
 40
4.03919
 40
4.26359
 40
4.48799
 40
4.71239
 40
4.93679
 40
5.16119
 40
5.38559
 40
5.60999
 40
5.83439
 40
6.05879
 40
6.28319
 40
6.28319
 10
336.226
 20
261.418
 30
0
 10
336.364
 20
261.418
 30
0
 10
336.771
 20
261.418
 30
0
 10
337.426
 20
261.418
 30
0
 10
338.297
 20
261.418
 30
0
 10
339.34
 20
261.418
 30
0
 10
340.502
 20
261.418
 30
0
 10
341.726
 20
261.418
 30
0
 10
342.95
 20
261.418
 30
0
 10
344.112
 20
261.418
 30
0
 10
345.155
 20
261.418
 30
0
 10
346.026
 20
261.418
 30
0
 10
346.681
 20
261.418
 30
0
 10
347.088
 20
261.418
 30
0
 10
347.226
 20
261.418
 30
0
  0
LINE
  5
A88
330
A02
100
AcDbEntity
  8
View004
100
AcDbLine
 10
267.226
 20
256.418
 30
0
 11
267.226
 21
261.418
 31
0
  0
SPLINE
  5
A89
330
A02
100
AcDbEntity
  8
View004
100
AcDbSpline
210
0
220
0
230
1
 70
8
 71
1
 72
17
 73
15
 74
0
 40
3.14159
 40
3.14159
 40
3.36599
 40
3.59039
 40
3.81479
 40
4.03919
 40
4.26359
 40
4.48799
 40
4.71239
 40
4.93679
 40
5.16119
 40
5.38559
 40
5.60999
 40
5.83439
 40
6.05879
 40
6.28319
 40
6.28319
 10
256.226
 20
261.418
 30
0
 10
256.364
 20
261.418
 30
0
 10
256.771
 20
261.418
 30
0
 10
257.426
 20
261.418
 30
0
 10
258.297
 20
261.418
 30
0
 10
259.34
 20
261.418
 30
0
 10
260.502
 20
261.418
 30
0
 10
261.726
 20
261.418
 30
0
 10
262.95
 20
261.418
 30
0
 10
264.112
 20
261.418
 30
0
 10
265.155
 20
261.418
 30
0
 10
266.026
 20
261.418
 30
0
 10
266.681
 20
261.418
 30
0
 10
267.088
 20
261.418
 30
0
 10
267.226
 20
261.418
 30
0
  0
LINE
  5
A8A
330
A02
100
AcDbEntity
  8
View004
100
AcDbLine
 10
359.726
 20
256.418
 30
0
 11
359.726
 21
241.418
 31
0
  0
LINE
  5
A8B
330
A02
100
AcDbEntity
  8
View004
100
AcDbLine
 10
243.726
 20
256.418
 30
0
 11
243.726
 21
241.418
 31
0
  0
LINE
  5
A8C
330
A02
100
AcDbEntity
  8
View004
100
AcDbLine
 10
336.226
 20
261.418
 30
0
 11
336.226
 21
256.418
 31
0
  0
LINE
  5
A8D
330
A02
100
AcDbEntity
  8
View004
100
AcDbLine
 10
256.226
 20
261.418
 30
0
 11
256.226
 21
256.418
 31
0
  0
LINE
  5
A8E
330
A02
100
AcDbEntity
  8
View004
100
AcDbLine
 10
341.726
 20
241.418
 30
0
 11
341.726
 21
256.418
 31
0
  0
LINE
  5
A8F
330
A02
100
AcDbEntity
  8
View004
100
AcDbLine
 10
261.726
 20
241.418
 30
0
 11
261.726
 21
256.418
 31
0
  0
SPLINE
  5
A90
330
A02
100
AcDbEntity
  8
View005
100
AcDbSpline
210
0
220
0
230
1
 70
8
 71
1
 72
17
 73
15
 74
0
 40
6.28319
 40
6.28319
 40
6.39539
 40
6.50758
 40
6.61978
 40
6.73198
 40
6.84418
 40
6.95638
 40
7.06858
 40
7.18078
 40
7.29298
 40
7.40518
 40
7.51738
 40
7.62958
 40
7.74178
 40
7.85398
 40
7.85398
 10
244.198
 20
160.592
 30
0
 10
244.312
 20
160.592
 30
0
 10
244.65
 20
160.592
 30
0
 10
245.209
 20
160.592
 30
0
 10
245.981
 20
160.592
 30
0
 10
246.957
 20
160.592
 30
0
 10
248.126
 20
160.592
 30
0
 10
249.471
 20
160.592
 30
0
 10
250.976
 20
160.592
 30
0
 10
252.622
 20
160.592
 30
0
 10
254.389
 20
160.592
 30
0
 10
256.253
 20
160.592
 30
0
 10
258.193
 20
160.592
 30
0
 10
260.183
 20
160.592
 30
0
 10
262.198
 20
160.592
 30
0
  0
SPLINE
  5
A91
330
A02
100
AcDbEntity
  8
View005
100
AcDbSpline
210
0
220
0
230
1
 70
8
 71
1
 72
17
 73
15
 74
0
 40
6.28319
 40
6.28319
 40
6.39539
 40
6.50758
 40
6.61978
 40
6.73198
 40
6.84418
 40
6.95638
 40
7.06858
 40
7.18078
 40
7.29298
 40
7.40518
 40
7.51738
 40
7.62958
 40
7.74178
 40
7.85398
 40
7.85398
 10
244.198
 20
175.592
 30
0
 10
244.312
 20
175.592
 30
0
 10
244.65
 20
175.592
 30
0
 10
245.209
 20
175.592
 30
0
 10
245.981
 20
175.592
 30
0
 10
246.957
 20
175.592
 30
0
 10
248.126
 20
175.592
 30
0
 10
249.471
 20
175.592
 30
0
 10
250.976
 20
175.592
 30
0
 10
252.622
 20
175.592
 30
0
 10
254.389
 20
175.592
 30
0
 10
256.253
 20
175.592
 30
0
 10
258.193
 20
175.592
 30
0
 10
260.183
 20
175.592
 30
0
 10
262.198
 20
175.592
 30
0
  0
LINE
  5
A92
330
A02
100
AcDbEntity
  8
View005
100
AcDbLine
 10
342.198
 20
160.592
 30
0
 11
262.198
 21
160.592
 31
0
  0
LINE
  5
A93
330
A02
100
AcDbEntity
  8
View005
100
AcDbLine
 10
279.652
 20
175.592
 30
0
 11
262.198
 21
175.592
 31
0
  0
LINE
  5
A94
330
A02
100
AcDbEntity
  8
View005
100
AcDbLine
 10
279.652
 20
175.592
 30
0
 11
279.652
 21
168.249
 31
0
  0
LINE
  5
A95
330
A02
100
AcDbEntity
  8
View005
100
AcDbLine
 10
279.652
 20
168.249
 30
0
 11
279.698
 21
168.249
 31
0
  0
LINE
  5
A96
330
A02
100
AcDbEntity
  8
View005
100
AcDbLine
 10
279.698
 20
168.249
 30
0
 11
324.507
 21
168.249
 31
0
  0
LINE
  5
A97
330
A02
100
AcDbEntity
  8
View005
100
AcDbLine
 10
324.507
 20
168.249
 30
0
 11
324.507
 21
175.592
 31
0
  0
LINE
  5
A98
330
A02
100
AcDbEntity
  8
View005
100
AcDbLine
 10
342.198
 20
175.592
 30
0
 11
324.507
 21
175.592
 31
0
  0
SPLINE
  5
A99
330
A02
100
AcDbEntity
  8
View005
100
AcDbSpline
210
0
220
0
230
1
 70
8
 71
1
 72
17
 73
15
 74
0
 40
1.5708
 40
1.5708
 40
1.683
 40
1.7952
 40
1.9074
 40
2.0196
 40
2.1318
 40
2.24399
 40
2.35619
 40
2.46839
 40
2.58059
 40
2.69279
 40
2.80499
 40
2.91719
 40
3.02939
 40
3.14159
 40
3.14159
 10
342.198
 20
160.592
 30
0
 10
344.214
 20
160.592
 30
0
 10
346.204
 20
160.592
 30
0
 10
348.143
 20
160.592
 30
0
 10
350.008
 20
160.592
 30
0
 10
351.775
 20
160.592
 30
0
 10
353.421
 20
160.592
 30
0
 10
354.926
 20
160.592
 30
0
 10
356.271
 20
160.592
 30
0
 10
357.44
 20
160.592
 30
0
 10
358.416
 20
160.592
 30
0
 10
359.188
 20
160.592
 30
0
 10
359.747
 20
160.592
 30
0
 10
360.085
 20
160.592
 30
0
 10
360.198
 20
160.592
 30
0
  0
SPLINE
  5
A9A
330
A02
100
AcDbEntity
  8
View005
100
AcDbSpline
210
0
220
0
230
1
 70
8
 71
1
 72
17
 73
15
 74
0
 40
1.5708
 40
1.5708
 40
1.683
 40
1.7952
 40
1.9074
 40
2.0196
 40
2.1318
 40
2.24399
 40
2.35619
 40
2.46839
 40
2.58059
 40
2.69279
 40
2.80499
 40
2.91719
 40
3.02939
 40
3.14159
 40
3.14159
 10
342.198
 20
175.592
 30
0
 10
344.214
 20
175.592
 30
0
 10
346.204
 20
175.592
 30
0
 10
348.143
 20
175.592
 30
0
 10
350.008
 20
175.592
 30
0
 10
351.775
 20
175.592
 30
0
 10
353.421
 20
175.592
 30
0
 10
354.926
 20
175.592
 30
0
 10
356.271
 20
175.592
 30
0
 10
357.44
 20
175.592
 30
0
 10
358.416
 20
175.592
 30
0
 10
359.188
 20
175.592
 30
0
 10
359.747
 20
175.592
 30
0
 10
360.085
 20
175.592
 30
0
 10
360.198
 20
175.592
 30
0
  0
LINE
  5
A9B
330
A02
100
AcDbEntity
  8
View005
100
AcDbLine
 10
324.507
 20
175.592
 30
0
 11
324.507
 21
175.699
 31
0
  0
LINE
  5
A9C
330
A02
100
AcDbEntity
  8
View005
100
AcDbLine
 10
279.698
 20
168.249
 30
0
 11
279.698
 21
175.699
 31
0
  0
LINE
  5
A9D
330
A02
100
AcDbEntity
  8
View005
100
AcDbLine
 10
324.507
 20
175.699
 30
0
 11
279.698
 21
175.699
 31
0
  0
LINE
  5
A9E
330
A02
100
AcDbEntity
  8
View005
100
AcDbLine
 10
272.198
 20
160.592
 30
0
 11
272.198
 21
140.592
 31
0
  0
LINE
  5
A9F
330
A02
100
AcDbEntity
  8
View005
100
AcDbLine
 10
332.198
 20
160.592
 30
0
 11
332.198
 21
140.592
 31
0
  0
LINE
  5
AA0
330
A02
100
AcDbEntity
  8
View005
100
AcDbLine
 10
272.198
 20
140.592
 30
0
 11
332.198
 21
140.592
 31
0
  0
LINE
  5
AA1
330
A02
100
AcDbEntity
  8
View005
100
AcDbLine
 10
256.698
 20
175.592
 30
0
 11
256.698
 21
180.592
 31
0
  0
SPLINE
  5
AA2
330
A02
100
AcDbEntity
  8
View005
100
AcDbSpline
210
0
220
0
230
1
 70
8
 71
1
 72
17
 73
15
 74
0
 40
0
 40
0
 40
0.224399
 40
0.448799
 40
0.673198
 40
0.897598
 40
1.122
 40
1.3464
 40
1.5708
 40
1.7952
 40
2.0196
 40
2.24399
 40
2.46839
 40
2.69279
 40
2.91719
 40
3.14159
 40
3.14159
 10
256.698
 20
180.592
 30
0
 10
256.836
 20
180.592
 30
0
 10
257.243
 20
180.592
 30
0
 10
257.898
 20
180.592
 30
0
 10
258.769
 20
180.592
 30
0
 10
259.812
 20
180.592
 30
0
 10
260.975
 20
180.592
 30
0
 10
262.198
 20
180.592
 30
0
 10
263.422
 20
180.592
 30
0
 10
264.585
 20
180.592
 30
0
 10
265.628
 20
180.592
 30
0
 10
266.499
 20
180.592
 30
0
 10
267.154
 20
180.592
 30
0
 10
267.561
 20
180.592
 30
0
 10
267.698
 20
180.592
 30
0
  0
LINE
  5
AA3
330
A02
100
AcDbEntity
  8
View005
100
AcDbLine
 10
336.698
 20
175.592
 30
0
 11
336.698
 21
180.592
 31
0
  0
SPLINE
  5
AA4
330
A02
100
AcDbEntity
  8
View005
100
AcDbSpline
210
0
220
0
230
1
 70
8
 71
1
 72
17
 73
15
 74
0
 40
0
 40
0
 40
0.224399
 40
0.448799
 40
0.673198
 40
0.897598
 40
1.122
 40
1.3464
 40
1.5708
 40
1.7952
 40
2.0196
 40
2.24399
 40
2.46839
 40
2.69279
 40
2.91719
 40
3.14159
 40
3.14159
 10
336.698
 20
180.592
 30
0
 10
336.836
 20
180.592
 30
0
 10
337.243
 20
180.592
 30
0
 10
337.898
 20
180.592
 30
0
 10
338.769
 20
180.592
 30
0
 10
339.812
 20
180.592
 30
0
 10
340.975
 20
180.592
 30
0
 10
342.198
 20
180.592
 30
0
 10
343.422
 20
180.592
 30
0
 10
344.585
 20
180.592
 30
0
 10
345.628
 20
180.592
 30
0
 10
346.499
 20
180.592
 30
0
 10
347.154
 20
180.592
 30
0
 10
347.561
 20
180.592
 30
0
 10
347.698
 20
180.592
 30
0
  0
LINE
  5
AA5
330
A02
100
AcDbEntity
  8
View005
100
AcDbLine
 10
244.198
 20
175.592
 30
0
 11
244.198
 21
160.592
 31
0
  0
LINE
  5
AA6
330
A02
100
AcDbEntity
  8
View005
100
AcDbLine
 10
360.198
 20
175.592
 30
0
 11
360.198
 21
160.592
 31
0
  0
LINE
  5
AA7
330
A02
100
AcDbEntity
  8
View005
100
AcDbLine
 10
267.698
 20
180.592
 30
0
 11
267.698
 21
175.592
 31
0
  0
LINE
  5
AA8
330
A02
100
AcDbEntity
  8
View005
100
AcDbLine
 10
347.698
 20
180.592
 30
0
 11
347.698
 21
175.592
 31
0
  0
LINE
  5
AA9
330
A02
100
AcDbEntity
  8
View005
100
AcDbLine
 10
262.198
 20
160.592
 30
0
 11
262.198
 21
175.592
 31
0
  0
LINE
  5
AAA
330
A02
100
AcDbEntity
  8
View005
100
AcDbLine
 10
342.198
 20
160.592
 30
0
 11
342.198
 21
175.592
 31
0
  0
ENDSEC
  0
SECTION
  2
OBJECTS
  0
DICTIONARY
  5
F000
330
0
100
AcDbDictionary
  3
ACAD_GROUP
350
F001
  0
DICTIONARY
  5
F001
330
F000
100
AcDbDictionary
  0
ENDSEC
  0
EOF